<svg width="185" height="43" viewBox="0 0 185 43" fill="none" xmlns="http://www.w3.org/2000/svg">
<path d="M86.6706 2.72727V42H78.3673V10.6087H78.1372L69.1436 16.2464V8.88281L78.8659 2.72727H86.6706Z" fill="white"/>
<path d="M36.6046 42V36.017L50.584 23.0732C51.7729 21.9226 52.77 20.8871 53.5754 19.9666C54.3936 19.0462 55.0136 18.1449 55.4355 17.2628C55.8574 16.3679 56.0683 15.4027 56.0683 14.3672C56.0683 13.2166 55.8063 12.2258 55.2821 11.3949C54.758 10.5511 54.0421 9.90554 53.1344 9.45809C52.2267 8.99787 51.1976 8.76775 50.047 8.76775C48.8453 8.76775 47.797 9.01065 46.9021 9.49645C46.0073 9.98224 45.3169 10.679 44.8311 11.5866C44.3453 12.4943 44.1024 13.5746 44.1024 14.8274H36.221C36.221 12.2578 36.8027 10.027 37.9661 8.13494C39.1294 6.2429 40.7594 4.77912 42.856 3.7436C44.9526 2.70809 47.3688 2.19034 50.1046 2.19034C52.9171 2.19034 55.3652 2.68892 57.449 3.68608C59.5456 4.67045 61.1756 6.03835 62.3389 7.78977C63.5023 9.54119 64.084 11.5483 64.084 13.8111C64.084 15.294 63.7899 16.7578 63.2019 18.2024C62.6266 19.647 61.5975 21.2514 60.1145 23.0156C58.6315 24.767 56.5413 26.87 53.8439 29.3246L48.1102 34.9432V35.2116H64.6017V42H36.6046Z" fill="white"/>
<path d="M15.8589 42.8629C12.5606 42.8501 9.72249 42.0383 7.34465 40.4276C4.9796 38.8168 3.15786 36.4837 1.87945 33.4283C0.613828 30.3729 -0.0125923 26.6974 0.000191761 22.402C0.000191761 18.1193 0.633004 14.4695 1.89863 11.4524C3.17704 8.43537 4.99877 6.14062 7.36383 4.56818C9.74167 2.98295 12.5733 2.19034 15.8589 2.19034C19.1444 2.19034 21.9697 2.98295 24.3347 4.56818C26.7125 6.15341 28.5407 8.45454 29.8191 11.4716C31.0975 14.4759 31.7303 18.1193 31.7175 22.402C31.7175 26.7102 31.0783 30.392 29.7999 33.4474C28.5343 36.5028 26.7189 38.8359 24.3539 40.4467C21.9888 42.0575 19.1572 42.8629 15.8589 42.8629ZM15.8589 35.9787C18.1089 35.9787 19.905 34.8473 21.2474 32.5845C22.5897 30.3217 23.2545 26.9276 23.2417 22.402C23.2417 19.4233 22.9349 16.9432 22.3212 14.9616C21.7204 12.9801 20.8638 11.4908 19.7516 10.4936C18.6522 9.49645 17.3546 8.99787 15.8589 8.99787C13.6216 8.99787 11.8319 10.1165 10.4895 12.3537C9.14721 14.5909 8.46965 17.9403 8.45687 22.402C8.45687 25.419 8.75729 27.9375 9.35815 29.9574C9.97178 31.9645 10.8347 33.473 11.9469 34.483C13.0591 35.4801 14.3631 35.9787 15.8589 35.9787Z" fill="white"/>
<path d="M82.4256 0L76.9256 4L95.9475 16.2464V8.88281L82.4256 0Z" fill="#90FF7C"/>
<path d="M159.508 41.5V2.22727H162.94V17.6641H163.247C163.631 16.782 164.181 15.8743 164.896 14.9411C165.625 14.0078 166.578 13.228 167.754 12.6016C168.943 11.9624 170.438 11.6428 172.241 11.6428C174.657 11.6428 176.779 12.282 178.607 13.5604C180.435 14.826 181.861 16.603 182.884 18.8913C183.906 21.1669 184.418 23.8196 184.418 26.8494C184.418 29.892 183.906 32.5575 182.884 34.8459C181.874 37.1342 180.455 38.9176 178.627 40.196C176.811 41.4744 174.702 42.1136 172.298 42.1136C170.509 42.1136 169.013 41.794 167.811 41.1548C166.622 40.5156 165.663 39.7294 164.935 38.7962C164.206 37.8501 163.644 36.9297 163.247 36.0348H162.825V41.5H159.508ZM162.883 26.7919C162.883 29.1697 163.234 31.2791 163.938 33.12C164.654 34.9482 165.676 36.3864 167.006 37.4347C168.348 38.4702 169.972 38.9879 171.877 38.9879C173.833 38.9879 175.488 38.451 176.843 37.3771C178.198 36.2905 179.227 34.8267 179.931 32.9858C180.634 31.1449 180.985 29.0803 180.985 26.7919C180.985 24.5291 180.634 22.4901 179.931 20.6747C179.24 18.8594 178.217 17.4212 176.862 16.3601C175.507 15.2862 173.845 14.7493 171.877 14.7493C169.959 14.7493 168.329 15.267 166.987 16.3026C165.657 17.3253 164.641 18.7443 163.938 20.5597C163.234 22.3622 162.883 24.4396 162.883 26.7919Z" fill="white"/>
<path d="M138 42.1712C136.223 42.1712 134.599 41.826 133.129 41.1357C131.659 40.4325 130.489 39.4226 129.62 38.1058C128.751 36.7763 128.316 35.1655 128.316 33.2734C128.316 31.816 128.591 30.5888 129.141 29.5916C129.69 28.5945 130.47 27.7763 131.48 27.1371C132.49 26.4979 133.685 25.9929 135.066 25.6222C136.447 25.2514 137.968 24.9638 139.63 24.7592C141.279 24.5547 142.673 24.3757 143.81 24.2223C144.961 24.0689 145.837 23.826 146.437 23.4936C147.038 23.1612 147.339 22.6243 147.339 21.8828V21.1925C147.339 19.1854 146.738 17.6065 145.536 16.456C144.347 15.2926 142.634 14.7109 140.397 14.7109C138.275 14.7109 136.543 15.1776 135.2 16.1108C133.871 17.044 132.937 18.1435 132.401 19.4091L129.16 18.2393C129.825 16.6285 130.745 15.3437 131.921 14.3849C133.097 13.4133 134.414 12.7166 135.871 12.2947C137.329 11.8601 138.805 11.6428 140.301 11.6428C141.426 11.6428 142.596 11.7898 143.81 12.0838C145.038 12.3778 146.175 12.8892 147.224 13.6179C148.272 14.3338 149.122 15.3374 149.774 16.6285C150.426 17.907 150.752 19.5305 150.752 21.4993V41.5H147.339V36.8402H147.128C146.719 37.7095 146.111 38.5533 145.306 39.3714C144.501 40.1896 143.491 40.8608 142.276 41.3849C141.062 41.9091 139.636 42.1712 138 42.1712ZM138.46 39.0455C140.276 39.0455 141.848 38.6428 143.178 37.8374C144.507 37.032 145.53 35.9645 146.246 34.6349C146.974 33.2926 147.339 31.816 147.339 30.2053V25.9482C147.083 26.1911 146.655 26.4084 146.054 26.6001C145.466 26.7919 144.782 26.9645 144.002 27.1179C143.235 27.2585 142.468 27.38 141.701 27.4822C140.934 27.5845 140.244 27.674 139.63 27.7507C137.968 27.9553 136.549 28.2749 135.373 28.7095C134.197 29.1442 133.295 29.745 132.669 30.5121C132.043 31.2663 131.729 32.2379 131.729 33.4268C131.729 35.2166 132.369 36.6037 133.647 37.5881C134.925 38.5597 136.53 39.0455 138.46 39.0455Z" fill="white"/>
<path d="M101.142 41.5V2.22727H104.727V38.2784H123.443V41.5H101.142Z" fill="white"/>
</svg>
