<svg width="185" height="43" viewBox="2.6 18.3 184.8 43.4" fill="none" xmlns="http://www.w3.org/2000/svg">
<path d="M89.3934 21.2273V60.5H81.0901V29.1087H80.86L71.8664 34.7464V27.3828L81.5887 21.2273H89.3934Z" fill="#1F2937"/>
<path d="M39.3274 60.5V54.517L53.3068 41.5732C54.4957 40.4226 55.4929 39.3871 56.2983 38.4666C57.1164 37.5462 57.7365 36.6449 58.1583 35.7628C58.5802 34.8679 58.7912 33.9027 58.7912 32.8672C58.7912 31.7166 58.5291 30.7258 58.0049 29.8949C57.4808 29.0511 56.7649 28.4055 55.8572 27.9581C54.9495 27.4979 53.9204 27.2678 52.7699 27.2678C51.5681 27.2678 50.5199 27.5107 49.625 27.9964C48.7301 28.4822 48.0397 29.179 47.5539 30.0866C47.0681 30.9943 46.8252 32.0746 46.8252 33.3274H38.9439C38.9439 30.7578 39.5255 28.527 40.6889 26.6349C41.8522 24.7429 43.4822 23.2791 45.5788 22.2436C47.6754 21.2081 50.0916 20.6903 52.8274 20.6903C55.6399 20.6903 58.088 21.1889 60.1718 22.1861C62.2684 23.1705 63.8984 24.5383 65.0618 26.2898C66.2251 28.0412 66.8068 30.0483 66.8068 32.3111C66.8068 33.794 66.5128 35.2578 65.9247 36.7024C65.3494 38.147 64.3203 39.7514 62.8373 41.5156C61.3544 43.267 59.2642 45.37 56.5667 47.8246L50.8331 53.4432V53.7116H67.3245V60.5H39.3274Z" fill="#1F2937"/>
<path d="M18.5817 61.3629C15.2834 61.3501 12.4453 60.5383 10.0675 58.9276C7.70242 57.3168 5.88068 54.9837 4.60227 51.9283C3.33665 48.8729 2.71023 45.1974 2.72301 40.902C2.72301 36.6193 3.35582 32.9695 4.62145 29.9524C5.89986 26.9354 7.72159 24.6406 10.0866 23.0682C12.4645 21.483 15.2962 20.6903 18.5817 20.6903C21.8672 20.6903 24.6925 21.483 27.0575 23.0682C29.4354 24.6534 31.2635 26.9545 32.5419 29.9716C33.8203 32.9759 34.4531 36.6193 34.4403 40.902C34.4403 45.2102 33.8011 48.892 32.5227 51.9474C31.2571 55.0028 29.4418 57.3359 27.0767 58.9467C24.7116 60.5575 21.88 61.3629 18.5817 61.3629ZM18.5817 54.4787C20.8317 54.4787 22.6278 53.3473 23.9702 51.0845C25.3125 48.8217 25.9773 45.4276 25.9645 40.902C25.9645 37.9233 25.6577 35.4432 25.044 33.4616C24.4432 31.4801 23.5866 29.9908 22.4744 28.9936C21.375 27.9964 20.0774 27.4979 18.5817 27.4979C16.3445 27.4979 14.5547 28.6165 13.2124 30.8537C11.87 33.0909 11.1925 36.4403 11.1797 40.902C11.1797 43.919 11.4801 46.4375 12.081 48.4574C12.6946 50.4645 13.5575 51.973 14.6697 52.983C15.782 53.9801 17.0859 54.4787 18.5817 54.4787Z" fill="#1F2937"/>
<path d="M85.1484 18.5L79.6484 22.5L98.6703 34.7464V27.3828L85.1484 18.5Z" fill="#90FF7C"/>
<path d="M162.231 60V20.7273H165.663V36.1641H165.97C166.354 35.282 166.903 34.3743 167.619 33.441C168.348 32.5078 169.3 31.728 170.477 31.1016C171.665 30.4623 173.161 30.1427 174.964 30.1427C177.38 30.1427 179.502 30.782 181.33 32.0604C183.158 33.326 184.584 35.103 185.606 37.3913C186.629 39.6669 187.141 42.3196 187.141 45.3494C187.141 48.392 186.629 51.0575 185.606 53.3459C184.597 55.6342 183.177 57.4176 181.349 58.696C179.534 59.9744 177.425 60.6136 175.021 60.6136C173.231 60.6136 171.736 60.294 170.534 59.6548C169.345 59.0156 168.386 58.2294 167.658 57.2962C166.929 56.3501 166.366 55.4297 165.97 54.5348H165.548V60H162.231ZM165.606 45.2919C165.606 47.6697 165.957 49.7791 166.66 51.62C167.376 53.4481 168.399 54.8864 169.729 55.9347C171.071 56.9702 172.695 57.4879 174.599 57.4879C176.555 57.4879 178.211 56.951 179.566 55.8771C180.921 54.7905 181.95 53.3267 182.653 51.4858C183.356 49.6449 183.708 47.5802 183.708 45.2919C183.708 43.0291 183.356 40.99 182.653 39.1747C181.963 37.3594 180.94 35.9212 179.585 34.8601C178.23 33.7862 176.568 33.2493 174.599 33.2493C172.682 33.2493 171.052 33.767 169.709 34.8025C168.38 35.8253 167.364 37.2443 166.66 39.0597C165.957 40.8622 165.606 42.9396 165.606 45.2919Z" fill="#1F2937"/>
<path d="M140.723 60.6712C138.946 60.6712 137.322 60.326 135.852 59.6356C134.382 58.9325 133.212 57.9226 132.343 56.6058C131.474 55.2763 131.039 53.6655 131.039 51.7734C131.039 50.316 131.314 49.0888 131.863 48.0916C132.413 47.0944 133.193 46.2763 134.203 45.6371C135.213 44.9979 136.408 44.4929 137.789 44.1221C139.17 43.7514 140.691 43.4638 142.353 43.2592C144.002 43.0547 145.395 42.8757 146.533 42.7223C147.684 42.5689 148.559 42.326 149.16 41.9936C149.761 41.6612 150.062 41.1243 150.062 40.3828V39.6925C150.062 37.6854 149.461 36.1065 148.259 34.956C147.07 33.7926 145.357 33.2109 143.12 33.2109C140.998 33.2109 139.265 33.6775 137.923 34.6108C136.594 35.544 135.66 36.6435 135.123 37.9091L131.883 36.7393C132.547 35.1285 133.468 33.8437 134.644 32.8849C135.82 31.9133 137.137 31.2166 138.594 30.7947C140.052 30.3601 141.528 30.1427 143.024 30.1427C144.149 30.1427 145.319 30.2898 146.533 30.5838C147.76 30.8778 148.898 31.3892 149.947 32.1179C150.995 32.8338 151.845 33.8373 152.497 35.1285C153.149 36.407 153.475 38.0305 153.475 39.9993V60H150.062V55.3402H149.851C149.442 56.2095 148.834 57.0533 148.029 57.8714C147.224 58.6896 146.214 59.3608 144.999 59.8849C143.785 60.4091 142.359 60.6712 140.723 60.6712ZM141.183 57.5454C142.998 57.5454 144.571 57.1427 145.9 56.3373C147.23 55.5319 148.253 54.4645 148.969 53.1349C149.697 51.7926 150.062 50.316 150.062 48.7052V44.4481C149.806 44.691 149.378 44.9084 148.777 45.1001C148.189 45.2919 147.505 45.4645 146.725 45.6179C145.958 45.7585 145.191 45.88 144.424 45.9822C143.657 46.0845 142.966 46.174 142.353 46.2507C140.691 46.4552 139.272 46.7748 138.096 47.2095C136.92 47.6442 136.018 48.245 135.392 49.0121C134.765 49.7663 134.452 50.7379 134.452 51.9268C134.452 53.7166 135.091 55.1037 136.37 56.0881C137.648 57.0596 139.253 57.5454 141.183 57.5454Z" fill="#1F2937"/>
<path d="M103.864 60V20.7273H107.45V56.7784H126.166V60H103.864Z" fill="#1F2937"/>
</svg>
